<svg xmlns="http://www.w3.org/2000/svg" fill="#FFF" width="24" height="24" viewBox="0 0 24 24">
  <g>
    <polygon points="4 4 9 4 9 2 2 2 2 9 4 9 4 4"/>
    <polygon points="4 15 2 15 2 22 9 22 9 20 4 20 4 15"/>
    <polygon points="15 2 15 4 20 4 20 9 22 9 22 2 15 2"/>
    <polygon points="20 20 15 20 15 22 22 22 22 15 20 15 20 20"/>
    <path d="M6,11h5V6H6ZM8,8H9V9H8Z"/>
    <path d="M18,6H13v5h5ZM16,9H15V8h1Z"/>
    <path d="M18,13H13v5h5Zm-2,3H15V15h1Z"/>
    <path d="M6,18h5V13H6Zm2-3H9v1H8Z"/>
  </g>
</svg>
